<?xml version="1.0" encoding="UTF-8"?>
<!DOCTYPE svg PUBLIC "-//W3C//DTD SVG 1.1//EN" "http://www.w3.org/Graphics/SVG/1.1/DTD/svg11.dtd">
<svg xmlns="http://www.w3.org/2000/svg" version="1.1" width="3840px" height="2160px" style="shape-rendering:geometricPrecision; text-rendering:geometricPrecision; image-rendering:optimizeQuality; fill-rule:evenodd; clip-rule:evenodd" xmlns:xlink="http://www.w3.org/1999/xlink">
<g><path style="opacity:0.997" fill="#1a2b3b" d="M 3120.5,46.5 C 3207.16,47.0156 3291.83,62.849 3374.5,94C 3393.52,102.758 3410.36,114.591 3425,129.5C 3430.58,136.853 3433.74,144.186 3434.5,151.5C 3435.04,152.748 3435.71,153.915 3436.5,155C 3436.5,183 3436.5,211 3436.5,239C 3435.83,239.667 3435.17,240.333 3434.5,241C 3434.31,242.43 3434.31,243.93 3434.5,245.5C 3432.26,250.658 3428.09,255.324 3422,259.5C 3409.48,262.664 3397.32,261.497 3385.5,256C 3285.07,208.606 3180.07,192.94 3070.5,209C 3039.35,214.251 3010.68,225.584 2984.5,243C 2964.3,259.222 2951.46,280.056 2946,305.5C 2938.58,339.575 2943.58,371.242 2961,400.5C 2973.3,415.466 2987.46,428.299 3003.5,439C 3041.02,459.456 3079.19,474.956 3118,485.5C 3159.01,498.949 3199.67,512.282 3240,525.5C 3292.5,539.492 3341.66,561.325 3387.5,591C 3454.52,640.508 3490.02,707.342 3494,791.5C 3497.12,871.832 3472.79,941.832 3421,1001.5C 3384.32,1041.29 3341.16,1070.79 3291.5,1090C 3216.66,1118.61 3137.99,1130.61 3055.5,1126C 2998.78,1122.92 2944.45,1114.58 2892.5,1101C 2866.3,1094.49 2840.8,1085.99 2816,1075.5C 2792.37,1067.76 2771.54,1055.09 2753.5,1037.5C 2745.97,1026.74 2741.8,1014.74 2741,1001.5C 2740.33,977.833 2740.33,954.167 2741,930.5C 2741.6,921.021 2745.1,912.854 2751.5,906C 2756.77,902.466 2762.61,900.966 2769,901.5C 2774.96,901.426 2780.8,902.259 2786.5,904C 2828.75,922.581 2872.42,938.248 2917.5,951C 2982.73,966.627 3050.73,972.294 3121.5,968C 3147.21,966.671 3173.21,962.005 3199.5,954C 3228.83,944.594 3254,928.76 3275,906.5C 3300.32,873.569 3308.99,836.569 3301,795.5C 3295.44,772.415 3283.94,752.915 3266.5,737C 3257.52,729.843 3248.19,723.176 3238.5,717C 3214.65,705.088 3189.99,694.755 3164.5,686C 3102.85,666.686 3040.51,647.352 2977.5,628C 2940.11,614.47 2905.11,597.136 2872.5,576C 2818.99,537.939 2782.99,487.939 2764.5,426C 2748.53,372.875 2748.53,319.708 2764.5,266.5C 2772.53,236.982 2786.86,209.815 2807.5,185C 2807.17,184.667 2806.83,184.333 2806.5,184C 2855.31,125.243 2916.65,85.5761 2990.5,65C 3033.21,53.4135 3076.55,47.2468 3120.5,46.5 Z"/></g>
<g><path style="opacity:0.996" fill="#1a2b3b" d="M 740.5,49.5 C 808.228,46.3385 874.895,53.1718 940.5,70C 1040.91,97.3153 1108.41,159.149 1143,255.5C 1155.04,293.751 1162.71,334.084 1166,376.5C 1167.3,516.489 1167.97,656.489 1168,796.5C 1168.41,796.957 1168.91,797.291 1169.5,797.5C 1169.44,832.133 1173.94,866.133 1183,899.5C 1187.16,910.239 1191,920.739 1194.5,931C 1204.34,953.184 1214.84,975.018 1226,996.5C 1229.04,1007.54 1227.54,1017.87 1221.5,1027.5C 1216.87,1033.33 1211.54,1038.5 1205.5,1043C 1182.01,1059.25 1158.34,1075.25 1134.5,1091C 1112.66,1105.91 1091.66,1104.91 1071.5,1088C 1053.74,1069.57 1038.24,1049.41 1025,1027.5C 1013.63,1006.75 1002.79,985.751 992.5,964.5C 895.212,1079.04 772.545,1131.21 624.5,1121C 584.094,1119.35 544.427,1110.02 505.5,1093C 440.013,1061.85 393.347,1012.85 365.5,946C 342.049,879.425 337.549,810.925 352,740.5C 359.072,709.239 371.072,679.239 388,650.5C 434.726,581.952 497.559,536.119 576.5,513C 635.406,496.495 695.24,489.662 756,492.5C 800.078,495.129 843.911,500.295 887.5,508C 919.028,514.271 949.694,520.438 979.5,526.5C 979.667,489.498 979.5,452.498 979,415.5C 977.338,376.154 970.004,339.82 957,306.5C 943.397,274.568 921.23,250.735 890.5,235C 850.343,217.701 808.343,208.701 764.5,208C 696.769,205.673 631.602,215.173 569,236.5C 568.667,236.167 568.333,235.833 568,235.5C 536.118,245.017 504.951,256.517 474.5,270C 467.524,272.517 461.024,274.35 455,275.5C 443.845,280.364 432.679,280.53 421.5,276C 414.324,269.489 410.824,261.323 411,251.5C 410.081,223.808 410.415,196.141 412,168.5C 413.068,153.525 419.901,142.025 432.5,134C 471.055,111.186 511.555,94.3524 554,83.5C 614.743,63.7943 676.91,52.461 740.5,49.5 Z M 744.5,630.5 C 778.478,629.732 812.311,631.065 846,634.5C 848.333,634.167 850.667,633.833 853,633.5C 855,634.167 857,634.833 859,635.5C 860.667,635.167 862.333,634.833 864,634.5C 865,635.167 866,635.833 867,636.5C 905.773,639.55 944.273,646.383 982.5,657C 982.5,674.667 982.5,692.333 982.5,710C 981.572,746.45 976.572,782.117 967.5,817C 952.171,855.801 927.171,888.135 892.5,914C 854.908,941.41 813.408,958.243 768,964.5C 740.141,970.131 711.974,971.964 683.5,970C 615.656,965.438 571.323,931.104 550.5,867C 550.957,866.586 551.291,866.086 551.5,865.5C 541.585,825.455 542.252,785.621 553.5,746C 555.387,736.913 558.887,727.746 564,718.5C 583.552,685.952 611.052,662.786 646.5,649C 662.192,643.339 677.859,638.839 693.5,635.5C 694.716,636.002 695.883,636.335 697,636.5C 698.555,634.854 700.221,634.521 702,635.5C 703,634.833 704,634.167 705,633.5C 706.533,633.944 708.033,634.277 709.5,634.5C 721.259,632.826 732.926,631.493 744.5,630.5 Z"/></g>
<g><path style="opacity:0.997" fill="#1a2b3b" d="M 1298.5,77.5 C 1344.86,77.0409 1391.19,77.5409 1437.5,79C 1452.55,80.7404 1463.89,88.0737 1471.5,101C 1481.39,123.711 1488.89,147.211 1494,171.5C 1553.69,409.255 1613.86,646.921 1674.5,884.5C 1674.29,885.086 1673.96,885.586 1673.5,886C 1674.66,887.621 1675.49,889.455 1676,891.5C 1717.96,709.583 1760.79,527.583 1804.5,345.5C 1816.68,289.076 1830.01,232.076 1844.5,174.5C 1847.84,152.828 1853.34,131.161 1861,109.5C 1866.16,94.0075 1876.66,84.5075 1892.5,81C 1898.43,79.5679 1904.43,78.5679 1910.5,78C 1948.83,77.3333 1987.17,77.3333 2025.5,78C 2053.16,79.8083 2069.49,92.3083 2074.5,115.5C 2077.03,120.933 2078.87,126.6 2080,132.5C 2117.69,292.391 2155.53,452.724 2193.5,613.5C 2193.29,614.086 2192.96,614.586 2192.5,615C 2206.17,670.188 2219.83,726.354 2233.5,783.5C 2233.39,784.442 2233.06,785.275 2232.5,786C 2233.69,788.057 2234.69,790.057 2235.5,792C 2242.83,827.541 2251.16,863.041 2260.5,898.5C 2281.08,817.554 2302.41,736.221 2324.5,654.5C 2323.33,653.094 2323.67,651.928 2325.5,651C 2325.04,650.586 2324.71,650.086 2324.5,649.5C 2369.9,475.846 2414.4,303.18 2458,131.5C 2462.13,118.421 2467.8,106.088 2475,94.5C 2483.62,85.7248 2494.12,80.5581 2506.5,79C 2550.14,77.3769 2593.81,77.0436 2637.5,78C 2649.68,79.1859 2657.18,85.6859 2660,97.5C 2660.86,111.784 2659.2,125.784 2655,139.5C 2645.64,166.754 2637.81,192.254 2631.5,216C 2618.61,254.654 2606.61,293.321 2595.5,332C 2594.17,334.667 2592.83,337.333 2591.5,340C 2591.96,340.414 2592.29,340.914 2592.5,341.5C 2578.92,382.712 2566.25,423.546 2554.5,464C 2528.09,547.622 2501.76,631.288 2475.5,715C 2463.35,757.191 2450.02,800.024 2435.5,843.5C 2436.9,844.842 2436.57,845.676 2434.5,846C 2434.83,847 2435.17,848 2435.5,849C 2433.7,849.317 2433.37,849.984 2434.5,851C 2420.24,896.113 2405.9,940.779 2391.5,985C 2385.3,1009.62 2377.8,1034.12 2369,1058.5C 2361.65,1080.52 2346.49,1093.02 2323.5,1096C 2282.52,1097.61 2241.52,1097.95 2200.5,1097C 2179.36,1097.54 2163.19,1089.04 2152,1071.5C 2148.78,1065.06 2146.11,1058.39 2144,1051.5C 2098.83,859.718 2052.33,666.051 2004.5,470.5C 2005.67,469.094 2005.33,467.928 2003.5,467C 2004.48,465.221 2004.15,463.555 2002.5,462C 2002.96,461.586 2003.29,461.086 2003.5,460.5C 1990.24,407.473 1977.08,354.807 1964,302.5C 1948.54,370.596 1932.04,439.429 1914.5,509C 1902.53,563.822 1889.53,618.656 1875.5,673.5C 1863.34,728.026 1850.01,783.526 1835.5,840C 1835.83,841 1836.17,842 1836.5,843C 1823.06,896.791 1809.39,952.124 1795.5,1009C 1795.64,1009.77 1795.98,1010.44 1796.5,1011C 1795.69,1011.31 1795.03,1011.81 1794.5,1012.5C 1795,1013.72 1795.33,1014.88 1795.5,1016C 1793.43,1016.32 1793.1,1017.16 1794.5,1018.5C 1793.59,1020.64 1792.59,1022.8 1791.5,1025C 1789.41,1042.27 1784.25,1058.77 1776,1074.5C 1767.19,1087.12 1755.02,1093.95 1739.5,1095C 1734.25,1095.19 1729.08,1095.69 1724,1096.5C 1689.37,1096.65 1654.54,1096.49 1619.5,1096C 1604.45,1096.49 1590.78,1092.49 1578.5,1084C 1573.17,1079 1569,1073.17 1566,1066.5C 1560.55,1054.14 1555.88,1041.47 1552,1028.5C 1504.49,869.466 1455.66,708.633 1405.5,546C 1393.85,504.11 1380.85,461.277 1366.5,417.5C 1366.07,415.851 1366.07,414.017 1366.5,412C 1352.11,367.426 1337.77,321.76 1323.5,275C 1311.06,230.979 1297.72,186.979 1283.5,143C 1284.73,141.413 1284.39,140.079 1282.5,139C 1282.96,138.586 1283.29,138.086 1283.5,137.5C 1278.48,124.256 1276.65,110.589 1278,96.5C 1280.57,85.4226 1287.41,79.0893 1298.5,77.5 Z"/></g>
<g><path style="opacity:0.997" fill="#fe9900" d="M 3329.5,1469.5 C 3307.5,1468.17 3285.5,1468.17 3263.5,1469.5C 3238.48,1470.71 3213.15,1472.37 3187.5,1474.5C 3186.91,1474.29 3186.41,1473.96 3186,1473.5C 3132.58,1477.77 3076.08,1483.77 3016.5,1491.5C 3008.67,1491.28 3001.83,1488.61 2996,1483.5C 2992.7,1477.92 2991.7,1471.92 2993,1465.5C 2997.15,1454.01 3004.31,1444.85 3014.5,1438C 3074.54,1397.93 3139.2,1370.26 3208.5,1355C 3319.7,1329.33 3431.37,1326.99 3543.5,1348C 3567.2,1352.68 3589.87,1360.35 3611.5,1371C 3622.65,1377.78 3629.48,1387.61 3632,1400.5C 3632.83,1404.67 3633.67,1408.83 3634.5,1413C 3634.41,1414.11 3634.08,1415.11 3633.5,1416C 3634.36,1416.69 3635.02,1417.52 3635.5,1418.5C 3636.79,1440.08 3636.79,1461.74 3635.5,1483.5C 3621.16,1612.11 3580.66,1730.44 3514,1838.5C 3499.1,1860.4 3483.43,1881.73 3467,1902.5C 3450.9,1919.6 3434.4,1936.44 3417.5,1953C 3410.35,1958.75 3402.68,1963.75 3394.5,1968C 3385.94,1972.1 3377.27,1972.44 3368.5,1969C 3362.45,1964.8 3359.78,1958.97 3360.5,1951.5C 3360.61,1944.21 3362.28,1937.71 3365.5,1932C 3377.85,1897.92 3391.18,1863.92 3405.5,1830C 3404.19,1828.61 3404.52,1827.61 3406.5,1827C 3406.36,1825.4 3406.36,1823.9 3406.5,1822.5C 3428.05,1768.06 3445.55,1714.06 3459,1660.5C 3466.81,1631.28 3472.15,1601.61 3475,1571.5C 3477.26,1551.57 3474.93,1532.24 3468,1513.5C 3461.91,1502.91 3453.41,1494.91 3442.5,1489.5C 3424.37,1481.61 3406.87,1476.94 3390,1475.5C 3369.64,1472.52 3349.48,1470.52 3329.5,1469.5 Z"/></g>
<g><path style="opacity:0.998" fill="#fe9900" d="M 2050.5,2107.5 C 2047.94,2107.2 2045.61,2107.53 2043.5,2108.5C 2039.83,2108.5 2036.17,2108.5 2032.5,2108.5C 2024.98,2108.18 2017.65,2108.51 2010.5,2109.5C 1945.52,2112.9 1879.52,2112.9 1812.5,2109.5C 1805.35,2108.51 1798.02,2108.18 1790.5,2108.5C 1688.03,2103.92 1588.7,2093.25 1492.5,2076.5C 1491.28,2077 1490.12,2077.33 1489,2077.5C 1487.45,2075.85 1485.78,2075.52 1484,2076.5C 1419.54,2065.15 1356.2,2051.48 1294,2035.5C 1261.78,2028.52 1229.45,2019.85 1197,2009.5C 1101.34,1982.04 1007,1948.37 914,1908.5C 824.051,1869.61 736.551,1826.11 651.5,1778C 515.73,1698.86 388.063,1608.53 268.5,1507C 249.381,1489.27 230.047,1471.77 210.5,1454.5C 208.193,1450.05 205.86,1446.21 203.5,1443C 203.833,1442.67 204.167,1442.33 204.5,1442C 203.075,1440.64 202.242,1439.14 202,1437.5C 200.103,1425.74 203.603,1415.9 212.5,1408C 215.127,1406.1 217.961,1404.6 221,1403.5C 221.333,1403.83 221.667,1404.17 222,1404.5C 224.333,1403.5 226.667,1402.5 229,1401.5C 231.543,1401.63 234.21,1402.3 237,1403.5C 238.957,1402.15 240.957,1402.48 243,1404.5C 244.016,1403.37 244.683,1403.7 245,1405.5C 245.414,1405.04 245.914,1404.71 246.5,1404.5C 481.223,1541.08 728.39,1647.08 988,1722.5C 1135.08,1766.23 1284.24,1799.73 1435.5,1823C 1652.51,1856.34 1871.34,1868.84 2092,1860.5C 2160.5,1856.87 2228.83,1851.21 2297,1843.5C 2299.33,1843.83 2301.67,1844.17 2304,1844.5C 2304.67,1843.83 2305.33,1843.17 2306,1842.5C 2308.33,1842.83 2310.67,1843.17 2313,1843.5C 2439.4,1827.74 2563.9,1806.24 2686.5,1779C 2806.98,1751.03 2926.31,1717.03 3044.5,1677C 3073.58,1666.75 3102.42,1655.92 3131,1644.5C 3132.33,1644.5 3133.67,1644.5 3135,1644.5C 3177.83,1627.03 3220.33,1609.86 3262.5,1593C 3287,1586.16 3307.83,1592 3325,1610.5C 3338.89,1633.48 3336.56,1655.14 3318,1675.5C 3314.89,1677.65 3312.05,1680.15 3309.5,1683C 3180.6,1777.46 3041.77,1854.62 2893,1914.5C 2843.22,1936.64 2792.56,1955.97 2741,1972.5C 2642.25,2006.11 2542.25,2033.44 2441,2054.5C 2407.05,2062.02 2372.38,2069.02 2337,2075.5C 2335.22,2074.52 2333.55,2074.85 2332,2076.5C 2330.33,2076.17 2328.67,2075.83 2327,2075.5C 2292.32,2081.94 2256.82,2087.44 2220.5,2092C 2220,2092.5 2219.5,2093 2219,2093.5C 2215.82,2091.91 2212.49,2092.25 2209,2094.5C 2207.04,2093.15 2205.04,2093.48 2203,2095.5C 2200.67,2095.17 2198.33,2094.83 2196,2094.5C 2195,2095.17 2194,2095.83 2193,2096.5C 2191.47,2096.06 2189.97,2095.72 2188.5,2095.5C 2142.68,2101.36 2096.68,2105.36 2050.5,2107.5 Z"/></g>
<g><path style="opacity:0.192" fill="#b3741a" d="M 3263.5,1469.5 C 3285.5,1468.17 3307.5,1468.17 3329.5,1469.5C 3307.32,1469.84 3285.32,1469.84 3263.5,1469.5 Z"/></g>
<g><path style="opacity:0.192" fill="#b3741a" d="M 2043.5,2108.5 C 2045.61,2107.53 2047.94,2107.2 2050.5,2107.5C 2049.47,2108.25 2048.3,2108.92 2047,2109.5C 2045.99,2108.66 2044.82,2108.33 2043.5,2108.5 Z"/></g>
<g><path style="opacity:0.192" fill="#b3741a" d="M 1790.5,2108.5 C 1798.02,2108.18 1805.35,2108.51 1812.5,2109.5C 1806.45,2109.93 1800.61,2110.26 1795,2110.5C 1793.38,2109.9 1791.88,2109.23 1790.5,2108.5 Z"/></g>
<g><path style="opacity:0.192" fill="#b3741a" d="M 2010.5,2109.5 C 2017.65,2108.51 2024.98,2108.18 2032.5,2108.5C 2031.12,2109.23 2029.62,2109.9 2028,2110.5C 2022.17,2110.47 2016.34,2110.14 2010.5,2109.5 Z"/></g>
</svg>
